<?xml version="1.0" standalone="no"?>
<!DOCTYPE svg PUBLIC "-//W3C//DTD SVG 20010904//EN"
 "http://www.w3.org/TR/2001/REC-SVG-20010904/DTD/svg10.dtd">
<svg version="1.0" xmlns="http://www.w3.org/2000/svg"
 width="8333.000000pt" height="8333.000000pt" viewBox="0 0 8333.000000 8333.000000"
 preserveAspectRatio="xMidYMid meet">
<metadata>
Created by potrace 1.16, written by Peter Selinger 2001-2019
</metadata>
<g transform="translate(0.000000,8333.000000) scale(0.100000,-0.100000)"
fill="#000000" stroke="none">
<path d="M42305 74299 c-2832 -121 -5551 -1045 -7895 -2683 -951 -664 -1872
-1497 -2655 -2401 -1001 -1155 -1841 -2517 -2442 -3959 -669 -1607 -1043
-3279 -1124 -5028 -23 -503 -4 -1390 41 -1893 236 -2640 1159 -5144 2690
-7300 771 -1085 1732 -2104 2775 -2939 676 -542 1349 -991 2125 -1418 85 -47
192 -104 237 -127 45 -22 96 -49 113 -60 l31 -18 -138 -99 c-642 -457 -1220
-951 -1854 -1584 -619 -618 -1174 -1255 -1681 -1927 -72 -96 -134 -170 -138
-166 -4 4 -108 269 -233 588 -930 2386 -1446 3695 -1489 3784 -318 643 -928
1101 -1640 1231 -242 44 -350 45 -978 11 -316 -17 -1342 -71 -2280 -121 -938
-49 -1831 -97 -1985 -105 -232 -12 -1861 -98 -4350 -230 -258 -14 -513 -27
-565 -30 -102 -6 -1981 -105 -2475 -130 -314 -17 -427 -30 -535 -65 -169 -55
-337 -163 -450 -288 -33 -37 -148 -186 -256 -332 -149 -202 -208 -291 -249
-375 -128 -264 -145 -536 -51 -811 18 -53 933 -2064 1706 -3749 139 -304 1301
-2845 1380 -3020 43 -93 438 -959 879 -1923 l801 -1753 -29 -43 c-17 -24 -64
-113 -105 -197 -74 -152 -75 -157 -95 -294 -40 -278 -46 -376 -46 -710 0 -345
6 -423 51 -683 72 -422 209 -798 418 -1150 243 -408 607 -785 1036 -1072 679
-454 1561 -735 2620 -836 223 -21 860 -30 1105 -15 701 42 1342 173 1823 371
533 219 953 580 1199 1031 l38 68 145 36 c1360 340 2847 928 4010 1585 l155
88 1163 42 c639 23 1167 40 1173 38 5 -2 -77 -43 -183 -93 -1249 -579 -2268
-1173 -2833 -1650 -294 -249 -549 -550 -1186 -1400 -364 -485 -922 -1257
-1374 -1900 -93 -132 -205 -292 -250 -355 -153 -216 -586 -839 -949 -1365 -93
-135 -175 -245 -181 -245 -6 0 -44 16 -84 35 -188 92 -526 222 -773 299 -899
279 -1730 298 -2425 55 -312 -110 -598 -272 -890 -505 -127 -103 -388 -357
-522 -510 -503 -574 -967 -1370 -1337 -2292 -127 -318 -156 -437 -157 -642 0
-346 139 -673 385 -905 198 -187 1008 -793 1593 -1191 1881 -1282 4104 -2416
6518 -3323 418 -158 446 -164 682 -165 126 -1 210 4 250 13 301 68 559 224
734 445 41 52 455 652 2301 3336 123 179 347 505 498 725 288 418 525 763 570
829 15 21 171 248 348 504 l320 466 55 17 c30 9 200 62 379 117 1244 385 2508
720 3539 937 144 30 265 55 270 55 5 0 2 -26 -5 -57 -81 -338 -80 -911 2
-1533 231 -1758 1116 -3760 2276 -5147 188 -225 297 -344 517 -563 460 -459
952 -830 1389 -1050 783 -393 1675 -491 2539 -279 680 166 1298 518 1780 1013
164 168 219 236 689 851 338 441 985 1287 1883 2460 134 176 443 579 685 895
242 316 528 690 635 830 107 140 271 354 363 475 94 122 180 226 196 233 190
97 598 340 837 498 538 356 922 669 1370 1118 370 370 666 726 922 1106 l51
76 88 12 c571 82 1305 300 1909 567 1187 525 2335 1424 3199 2505 434 543 698
1210 755 1903 6 73 11 414 11 790 0 787 -13 1433 -46 2272 l-6 160 88 65 c146
107 261 206 402 344 319 313 493 603 547 910 17 102 19 194 5 332 -8 84 -18
233 -55 834 -3 47 -14 229 -25 405 -149 2397 -368 3923 -709 4955 -190 573
-409 971 -677 1231 -192 185 -394 292 -612 322 -70 10 -83 15 -87 32 -3 11
-23 106 -45 210 -221 1042 -509 2123 -780 2920 -384 1129 -774 1892 -1176
2300 -236 239 -655 512 -1104 720 -739 342 -1629 596 -2831 810 l-97 17 182
241 c801 1067 1432 2193 1927 3440 l98 248 86 91 c489 520 885 1280 1101 2113
150 583 217 1133 217 1795 0 336 -7 496 -39 805 -64 642 -220 1284 -445 1830
-66 162 -63 147 -119 555 -329 2401 -1276 4737 -2718 6705 -1254 1711 -2902
3164 -4722 4163 -30 16 -102 56 -160 87 -176 97 -743 375 -950 467 -1650 731
-3375 1160 -5095 1268 -479 30 -1092 38 -1520 19z m1170 -869 c1091 -50 2166
-225 3200 -521 3061 -878 5672 -2724 7502 -5304 897 -1265 1584 -2690 2017
-4185 70 -245 167 -610 161 -610 -3 0 -48 34 -102 76 -483 378 -1064 610
-1663 663 -127 11 -490 6 -615 -9 -71 -8 -252 -37 -338 -53 -7 -1 -32 39 -55
88 -78 162 -297 576 -402 759 -846 1485 -2005 2820 -3425 3947 -1575 1251
-3472 2246 -5520 2895 -2244 711 -4585 970 -6765 748 -355 -36 -764 -93 -1043
-145 -60 -11 -114 -18 -120 -16 -15 5 617 322 868 435 1461 660 3004 1064
4575 1197 149 12 384 27 625 38 160 8 905 6 1100 -3z m-3545 -2174 c714 -48
1296 -119 1975 -242 2187 -397 4375 -1259 6215 -2447 1234 -798 2337 -1770
3226 -2847 592 -716 1099 -1491 1503 -2297 44 -90 81 -167 81 -172 0 -5 -10
-11 -22 -15 -40 -10 -298 -155 -431 -242 -146 -96 -284 -198 -412 -308 -50
-41 -92 -76 -95 -76 -3 0 -32 64 -64 143 -572 1386 -1647 2738 -3091 3892
-1594 1273 -3544 2263 -5640 2865 -985 283 -2027 480 -3005 569 -542 49 -686
55 -1360 56 -640 0 -755 -4 -1190 -41 -2116 -179 -3961 -852 -5460 -1992 -137
-105 -308 -243 -411 -334 -37 -32 -69 -58 -73 -58 -20 0 407 549 650 836 422
499 935 1021 1419 1444 154 135 435 369 487 406 71 50 584 235 999 359 960
288 1994 458 3129 515 272 13 1294 4 1570 -14z m-689 -3440 c157 -74 240 -277
179 -438 -32 -87 -89 -142 -256 -248 -921 -583 -1747 -1208 -2496 -1887 -356
-322 -885 -861 -1190 -1209 -1889 -2163 -2995 -4728 -3308 -7674 -41 -391 -44
-401 -121 -485 -153 -166 -442 -140 -552 48 -29 50 -63 158 -151 482 -360
1332 -552 2437 -628 3610 -16 252 -16 1029 0 1265 77 1115 296 1985 708 2810
282 564 628 1036 1088 1487 475 465 970 815 1621 1143 269 136 373 183 645
293 1071 431 2387 705 3900 812 118 8 238 17 265 19 28 2 93 3 145 1 79 -1
104 -6 151 -29z m15089 -5194 c-447 -264 -796 -605 -1113 -1088 -339 -516
-588 -1148 -711 -1804 -78 -413 -100 -666 -100 -1135 0 -396 11 -575 55 -875
195 -1346 846 -2507 1749 -3119 136 -92 297 -182 434 -242 l98 -44 -43 -9
c-24 -5 -170 -10 -324 -10 -305 -1 -367 6 -595 64 -373 94 -723 272 -1058 539
-141 112 -403 376 -523 526 -555 696 -886 1537 -995 2525 -21 197 -30 732 -15
941 41 564 155 1080 346 1564 484 1223 1397 2054 2427 2209 144 22 155 23 328
24 l155 2 -115 -68z m1387 -415 c77 -55 259 -225 355 -331 228 -252 406 -521
578 -871 121 -245 177 -381 257 -625 296 -897 378 -1975 227 -2970 -150 -987
-517 -1810 -1057 -2367 -159 -163 -144 -158 -467 -158 -252 1 -335 13 -537 81
-470 157 -902 519 -1241 1039 -589 904 -835 2182 -651 3395 169 1120 704 2077
1419 2539 306 198 668 307 983 296 87 -3 103 -6 134 -28z m-8150 -1013 c430
-73 820 -380 993 -782 41 -95 129 -381 160 -519 42 -184 37 -417 -12 -613
-122 -489 -530 -883 -1020 -984 -193 -40 -458 -45 -618 -11 -408 85 -745 340
-933 704 -72 140 -100 226 -149 466 -86 426 -59 719 98 1025 151 295 410 525
726 644 89 33 282 76 388 86 102 10 255 3 367 -16z m-247 -4934 c219 -46 309
-73 435 -134 184 -89 318 -193 443 -342 183 -218 286 -463 314 -746 17 -163 1
-303 -57 -534 -338 -1323 -963 -2671 -1790 -3865 -70 -101 -152 -214 -181
-250 -173 -213 -431 -376 -701 -443 -326 -82 -643 -47 -939 102 -262 132 -465
336 -594 597 -105 212 -142 367 -143 595 -1 299 66 507 260 810 369 578 704
1260 932 1900 29 80 56 155 61 166 5 12 38 116 74 230 77 248 149 516 210 784
62 273 107 390 214 555 193 300 515 521 857 589 124 24 131 24 295 21 129 -2
181 -8 310 -35z m5301 -2350 c165 -99 461 -241 611 -293 15 -5 12 -18 -27
-106 -331 -745 -804 -1594 -1304 -2336 -1400 -2079 -3157 -3636 -5111 -4528
-1087 -496 -2234 -794 -3475 -902 -455 -40 -1433 2 -2100 89 l-100 13 110 2
c174 2 542 20 755 37 1873 146 3639 725 5232 1716 1126 700 2187 1637 3088
2727 728 880 1361 1862 1907 2956 110 219 165 334 281 588 23 48 43 87 45 87
2 0 42 -23 88 -50z m2601 -632 c-721 -1413 -1642 -2649 -2774 -3724 -276 -263
-384 -359 -658 -588 -572 -479 -1197 -919 -1840 -1298 -271 -159 -751 -421
-709 -386 8 7 89 70 180 140 1469 1133 2810 2729 3827 4554 236 425 481 916
643 1291 l74 172 70 -7 c39 -4 201 -7 360 -7 364 1 551 26 850 113 55 17 106
30 113 31 8 1 -51 -126 -136 -291z m-1127 -3533 c600 -89 1222 -216 1709 -350
352 -96 582 -171 926 -301 l75 -29 -40 -7 c-22 -4 -105 -19 -185 -33 -683
-120 -1357 -384 -1920 -752 -310 -203 -549 -400 -820 -674 l-175 -177 -135
100 c-303 224 -664 450 -1022 640 l-197 104 107 90 c396 331 913 826 1296
1241 137 150 172 182 190 178 11 -3 98 -16 191 -30z m3794 -1404 l105 -8 43
-49 c517 -591 1109 -2248 1598 -4474 97 -444 109 -500 104 -503 -2 -2 -56 -23
-119 -47 -793 -298 -1750 -792 -2663 -1373 -103 -65 -189 -118 -191 -116 -1 2
-24 112 -49 244 -271 1383 -729 2615 -1313 3530 -285 447 -694 947 -1054 1289
l-94 89 180 176 c269 265 489 437 779 610 702 418 1511 635 2380 639 105 0
237 -3 294 -7z m-6087 -697 c971 -454 1847 -1120 2498 -1899 516 -616 919
-1363 1247 -2305 631 -1813 829 -4095 507 -5845 -104 -564 -260 -1061 -461
-1467 -70 -141 -81 -158 -157 -233 -339 -335 -815 -531 -1483 -612 -185 -22
-898 -26 -1108 -5 -847 82 -1697 265 -2575 554 -102 33 -195 64 -207 69 -22 8
-20 12 52 105 544 696 927 1741 1020 2784 66 748 -6 1454 -212 2055 -86 250
-167 427 -301 653 -30 51 -53 94 -51 96 2 1 180 67 394 145 909 332 1025 375
1022 377 -2 2 -372 8 -822 14 -451 5 -1032 13 -1291 16 l-472 7 -373 683
c-206 375 -375 682 -376 680 -2 -1 13 -295 32 -652 19 -357 35 -664 35 -681
l0 -33 -1344 0 -1345 0 -288 168 c-884 517 -1381 768 -1907 966 -1084 408
-1992 416 -2766 25 -305 -154 -545 -334 -816 -610 -71 -74 -171 -185 -221
-246 -62 -76 -364 -380 -923 -930 l-831 -818 -937 -6 c-790 -5 -949 -8 -1012
-21 -41 -9 -76 -15 -77 -14 -5 5 -35 506 -44 761 -26 704 18 1382 125 1955 13
69 22 126 21 128 -5 6 -127 -279 -194 -454 -215 -561 -388 -1214 -525 -1989
-36 -201 -89 -560 -102 -690 l-7 -70 -117 -122 c-230 -238 -375 -509 -453
-845 -21 -92 -21 -106 -27 -1563 -5 -1346 -6 -1470 -21 -1473 -12 -2 -24 16
-44 65 -15 37 -205 523 -422 1078 -503 1286 -509 1301 -603 1540 -44 110 -311
794 -595 1519 l-516 1319 38 56 c75 110 491 660 632 836 987 1230 2006 2224
3073 2999 59 43 208 144 330 226 l221 148 46 -18 c25 -11 96 -40 156 -66 626
-264 1414 -526 2120 -703 1589 -398 3260 -528 4880 -381 2240 205 4437 938
6390 2132 216 133 715 464 875 582 63 46 123 85 132 85 9 1 90 -33 180 -75z
m-22857 6 c313 -67 577 -206 798 -419 240 -232 293 -327 537 -951 89 -228 231
-590 315 -805 84 -214 449 -1146 810 -2070 806 -2060 2007 -5130 2355 -6020
421 -1076 430 -1098 427 -1102 -2 -1 -523 -21 -1158 -43 -635 -22 -1410 -49
-1724 -60 -313 -11 -898 -31 -1300 -45 -401 -13 -784 -27 -850 -30 -66 -2
-196 -7 -290 -10 -93 -3 -228 -7 -300 -10 -330 -12 -448 -16 -860 -30 -242 -8
-496 -17 -565 -20 -147 -6 -284 -10 -870 -30 -239 -8 -493 -17 -565 -20 -71
-3 -202 -7 -290 -10 -715 -24 -1040 -35 -1160 -40 -77 -3 -534 -19 -1015 -35
-833 -28 -1270 -44 -1570 -55 -154 -6 -273 -10 -880 -31 -239 -8 -462 -19
-495 -25 -33 -6 -76 -13 -95 -16 l-35 -5 -149 329 c-83 180 -173 378 -202 438
-28 61 -327 713 -664 1450 -337 737 -912 1995 -1277 2795 -366 800 -965 2110
-1330 2910 -366 800 -757 1655 -868 1900 -112 245 -209 466 -216 492 -15 65
-7 171 20 238 23 59 351 514 424 588 50 51 141 98 217 112 30 5 192 16 360 25
367 18 2927 152 3055 160 50 3 515 28 1035 55 520 27 988 52 1040 55 52 3 392
21 755 40 363 19 1130 60 1705 90 575 30 1596 84 2270 120 1327 70 1313 69
1773 95 405 24 693 20 832 -10z m13590 -4830 c718 -68 1461 -378 2890 -1209
187 -109 356 -204 375 -212 29 -12 351 -15 1999 -19 l1963 -5 40 -45 c66 -76
175 -246 242 -379 175 -345 279 -726 328 -1201 17 -162 17 -685 0 -850 -112
-1091 -488 -2037 -1043 -2624 l-74 -78 -1050 352 c-577 193 -1252 420 -1500
502 -247 83 -453 154 -457 157 -5 4 22 186 57 405 36 219 64 403 63 408 -3 8
-193 -185 -608 -616 -52 -54 -115 -112 -140 -129 -25 -17 -79 -62 -120 -101
-306 -288 -857 -511 -1463 -590 -383 -50 -938 -42 -1292 19 -739 128 -1399
532 -1981 1215 -170 199 -406 539 -498 719 -15 29 -10 46 250 793 401 1150
416 1194 406 1183 -5 -6 -99 -122 -208 -260 -109 -137 -275 -347 -369 -465
-94 -118 -301 -379 -459 -580 -159 -201 -306 -383 -326 -405 -52 -56 -96 -123
-130 -200 -35 -78 -173 -291 -279 -430 -100 -132 -307 -339 -401 -402 -154
-103 -247 -137 -370 -137 -148 1 -291 73 -440 223 -134 135 -188 260 -197 456
-18 390 225 935 610 1366 46 52 550 553 1121 1114 776 763 1060 1049 1129
1135 104 131 315 346 429 439 251 202 557 352 850 416 188 41 441 55 653 35z
m18011 -150 c105 -51 247 -213 353 -404 18 -32 29 -62 24 -66 -4 -5 -102 -49
-217 -99 -543 -237 -1062 -490 -1476 -721 -564 -314 -732 -429 -960 -660 -119
-121 -165 -185 -203 -286 -21 -57 -22 -71 -22 -379 1 -321 8 -446 56 -920 52
-525 182 -1545 295 -2315 30 -206 62 -426 71 -488 9 -61 18 -110 20 -108 3 2
-3 143 -11 313 -74 1446 -102 2618 -76 3238 11 259 34 474 55 515 29 56 200
191 370 292 375 222 1305 599 2145 868 107 34 200 65 207 67 15 6 28 -38 98
-322 256 -1036 424 -2453 560 -4740 28 -471 53 -832 60 -885 18 -121 -114
-341 -331 -551 -512 -494 -1529 -1021 -2524 -1308 -765 -220 -1514 -296 -2010
-205 -75 14 -250 60 -258 68 -1 2 -27 124 -57 272 -113 563 -238 1082 -401
1662 -30 106 -54 199 -54 207 0 9 20 56 45 105 328 653 552 1557 639 2580 55
646 46 1501 -24 2234 -11 115 -23 226 -26 246 l-6 37 203 135 c1028 680 2043
1209 2974 1550 324 119 363 124 481 68z m-23153 -2857 l5 -118 -53 -95 c-184
-331 -293 -624 -350 -935 -26 -140 -31 -406 -11 -543 50 -341 216 -648 468
-868 31 -27 59 -56 61 -64 7 -20 42 -789 36 -794 -3 -3 -1767 -67 -1832 -66
-17 0 -17 66 -15 1418 l3 1417 23 75 c105 345 373 599 712 671 74 15 140 18
516 18 l431 1 6 -117z m2529 -2175 c318 -442 600 -731 1069 -1100 l34 -27 -50
-1 c-28 0 -629 -20 -1335 -45 -707 -25 -1297 -45 -1311 -45 l-27 0 -6 138 c-4
75 -9 173 -12 218 l-6 81 143 6 c345 14 644 148 975 437 107 93 248 246 352
381 37 49 69 88 72 88 4 1 49 -59 102 -131z m8098 -2711 c0 -952 1 -937 -61
-1098 -80 -208 -248 -393 -444 -488 -188 -92 -230 -98 -797 -113 -263 -6 -480
-10 -482 -7 -2 2 17 47 42 99 57 115 103 248 139 395 l26 110 7 715 c4 393 8
954 9 1247 l1 531 780 -261 780 -262 0 -868z m-2753 1039 c102 -47 188 -151
213 -258 13 -58 -15 -648 -35 -737 -36 -155 -157 -261 -323 -282 -100 -12
-10001 -363 -10010 -354 -4 3 -21 221 -38 483 -18 262 -37 555 -44 650 -7 95
-10 176 -6 179 3 3 828 34 1833 69 1005 35 2609 91 3563 124 954 33 1776 60
1825 60 59 0 128 -8 200 -25 292 -65 581 -90 1040 -90 387 0 546 12 835 61
149 25 459 99 565 134 50 16 83 19 190 17 119 -2 135 -4 192 -31z m-10903
-398 c3 -29 8 -91 11 -138 7 -120 24 -380 31 -475 26 -375 41 -641 38 -644 -2
-3 -161 -10 -352 -17 -352 -13 -559 -20 -802 -29 -74 -3 -326 -12 -560 -20
-234 -8 -483 -17 -555 -20 -71 -3 -263 -10 -425 -15 -162 -5 -347 -12 -410
-15 -63 -2 -187 -7 -275 -10 -387 -13 -1002 -35 -1130 -40 -385 -16 -2384 -85
-2439 -85 l-63 0 -43 60 c-143 206 -406 466 -637 632 -324 234 -698 409 -1153
542 l-85 25 60 1 c33 0 170 4 305 10 279 11 348 13 1140 40 316 11 638 22 715
25 77 3 532 19 1010 35 479 17 1194 41 1590 55 396 14 1044 36 1440 50 396 14
974 34 1285 45 311 11 666 23 790 27 124 3 227 7 229 9 2 2 66 4 142 4 l138 0
5 -52z m14647 -107 c112 -38 312 -110 444 -160 1066 -405 2238 -691 3215 -785
541 -53 1096 -45 1545 20 263 38 575 116 798 200 159 60 397 176 520 254 54
34 101 60 103 57 8 -8 168 -655 219 -882 190 -857 311 -1629 369 -2350 33
-409 40 -587 40 -1030 0 -447 -7 -641 -39 -990 -222 -2418 -1304 -4274 -3247
-5565 -289 -193 -473 -302 -903 -536 -82 -45 -122 -89 -351 -389 -612 -803
-1018 -1332 -1034 -1349 -17 -18 -19 -14 -44 95 -203 873 -551 1832 -961 2644
-883 1753 -2090 3027 -3395 3585 -243 104 -572 205 -785 241 -38 6 -76 15 -83
19 -27 14 355 475 704 851 301 323 1224 1184 1549 1445 599 483 1224 838 1872
1066 385 135 803 221 1278 264 l80 8 -75 13 c-259 45 -805 67 -1060 44 -1186
-109 -2419 -657 -3435 -1526 -495 -423 -1220 -1245 -1798 -2035 -160 -220
-497 -722 -631 -940 l-88 -145 -307 0 c-268 0 -325 -3 -461 -23 -742 -111
-1523 -426 -2299 -929 -132 -86 -99 -88 -306 15 -702 348 -1395 917 -1966
1612 -788 959 -1363 2159 -1718 3585 -56 227 -77 323 -70 329 2 2 1845 50
4094 105 2250 56 4110 104 4135 107 25 3 88 11 140 19 67 11 399 22 1135 40
760 19 1068 30 1145 41 647 93 1175 539 1374 1161 63 197 67 235 76 708 4 237
8 598 9 803 1 204 2 372 4 372 2 0 95 -31 208 -69z m-25627 -245 c-362 -149
-669 -360 -970 -667 -191 -195 -327 -370 -459 -589 -31 -52 -58 -96 -60 -98
-2 -2 -52 -5 -111 -8 -224 -9 -629 -24 -661 -24 -24 0 -59 18 -130 66 -261
177 -480 393 -628 619 -96 146 -180 337 -199 451 -7 40 -5 43 36 79 50 43 97
69 153 84 23 6 363 22 760 36 396 13 781 27 855 30 74 3 403 14 730 25 600 20
680 23 735 27 20 2 4 -8 -51 -31z m1602 -585 c365 -57 649 -144 939 -286 270
-132 457 -267 647 -464 710 -737 652 -1715 -132 -2238 -594 -396 -1816 -593
-2970 -477 -910 90 -1703 356 -2270 762 -486 347 -825 820 -979 1367 -34 122
-63 256 -57 262 2 2 39 -27 82 -64 366 -315 835 -570 1379 -746 230 -75 300
-90 380 -84 87 6 168 41 230 98 62 58 88 105 131 239 174 549 540 1042 992
1335 98 63 314 166 437 208 124 43 296 83 435 102 157 21 582 14 756 -14z
m20691 -573 c-5 -166 -21 -242 -77 -364 -136 -301 -445 -518 -770 -540 -131
-10 -2231 -60 -2235 -54 -2 3 -7 193 -11 422 l-7 416 139 6 c76 4 645 24 1264
46 619 22 1159 42 1200 46 149 12 340 76 446 148 21 14 43 26 48 26 5 0 6 -66
3 -152z m-3844 -405 c4 -141 7 -327 7 -414 l0 -158 -42 -5 c-82 -9 -5134 -128
-5233 -123 -324 18 -624 219 -770 518 -38 79 -84 215 -74 222 5 4 5846 214
5995 216 l111 1 6 -257z m19046 -654 c19 -707 25 -1852 12 -2034 -29 -411
-117 -731 -298 -1088 -164 -323 -502 -740 -965 -1192 -966 -943 -2082 -1591
-3288 -1909 l-128 -34 60 132 c538 1177 801 2565 775 4081 -6 303 -24 689 -42
890 -20 221 -39 403 -66 628 -17 142 -29 260 -27 263 3 2 53 -3 111 -11 323
-45 735 -38 1172 21 775 104 1738 405 2505 785 l155 76 7 -91 c3 -50 11 -283
17 -517z m-30859 465 c-124 -57 -662 -268 -895 -352 -419 -151 -1114 -372
-1247 -397 l-35 -7 -6 154 c-6 163 -21 270 -63 436 -15 57 -25 105 -23 107 4
4 2103 82 2239 83 l85 1 -55 -25z m5099 -371 c12 -27 57 -99 98 -162 133 -200
350 -404 559 -525 l80 -47 48 -232 c389 -1873 1132 -3445 2184 -4617 152 -170
449 -465 612 -610 406 -360 893 -696 1318 -909 l84 -42 -18 -27 c-10 -15 -34
-50 -55 -78 -37 -51 -38 -51 -116 -63 -135 -22 -588 -110 -833 -162 -1090
-233 -2423 -589 -3681 -984 l-235 -74 -135 35 c-452 118 -991 309 -1469 520
-199 88 -661 318 -860 429 -1031 576 -2012 1326 -2850 2181 -178 182 -437 462
-452 489 -11 18 775 1116 1317 1840 396 530 681 887 850 1064 392 413 1299
975 2531 1569 421 203 966 452 990 452 5 0 20 -21 33 -47z m10061 -5174 c336
-34 674 -137 1035 -314 466 -229 841 -504 1289 -944 624 -616 1149 -1358 1604
-2266 390 -781 677 -1562 892 -2427 61 -246 150 -663 150 -701 0 -12 -48 -84
-108 -162 -128 -166 -630 -822 -1620 -2115 -397 -520 -764 -992 -814 -1049
-51 -57 -138 -145 -193 -195 -104 -94 -315 -259 -322 -253 -2 3 1 76 7 163 53
777 -240 1960 -818 3306 -571 1328 -1438 2830 -2149 3726 -315 395 -725 806
-1059 1059 -364 276 -761 492 -1113 608 l-85 28 67 34 c199 100 563 232 807
293 296 75 637 111 851 91 469 -45 908 -228 1579 -661 626 -403 1295 -966
1972 -1660 255 -261 251 -261 101 3 -299 527 -664 1037 -1112 1552 -132 152
-573 593 -711 711 -289 248 -577 458 -829 604 -11 7 -10 15 9 46 40 65 310
477 337 512 27 36 6 35 233 11z m-15950 -484 c429 -461 988 -967 1530 -1386
1035 -800 2110 -1398 3255 -1812 156 -56 525 -177 542 -177 3 0 2 -7 -1 -16
-5 -13 -408 -603 -661 -969 -54 -78 -1083 -1573 -1280 -1860 -83 -121 -355
-517 -605 -880 -250 -363 -644 -937 -877 -1275 -232 -338 -445 -638 -472 -667
-101 -104 -269 -159 -410 -135 -38 6 -207 64 -387 133 -2778 1054 -5193 2349
-7211 3866 -434 326 -613 473 -660 545 -53 80 -74 144 -81 240 -6 103 5 143
113 413 330 820 729 1513 1157 2010 139 161 380 390 522 497 262 197 494 310
785 383 651 164 1501 35 2381 -362 356 -161 356 -161 965 -648 303 -243 555
-444 562 -448 6 -4 -16 57 -51 135 -34 79 -152 346 -260 594 l-198 452 148
213 c81 118 196 284 254 369 109 158 227 327 540 778 l175 252 29 -33 c16 -17
104 -113 196 -212z m12200 -1712 c656 -107 1393 -619 2055 -1428 1003 -1225
2157 -3453 2630 -5075 270 -927 315 -1613 128 -1984 -39 -77 -117 -166 -166
-189 -51 -24 -320 -65 -503 -77 -496 -31 -990 69 -1439 289 -537 265 -1168
801 -1696 1441 -1056 1279 -1856 3067 -2088 4665 -48 333 -55 435 -56 825 0
352 1 381 23 476 30 139 83 286 147 413 52 102 81 149 320 498 l110 161 65 -4
c36 -3 92 -1 125 5 73 12 217 5 345 -16z"/>
<path d="M23568 44875 c-313 -38 -651 -144 -918 -287 -773 -415 -1283 -1179
-1371 -2052 -17 -174 -7 -486 21 -661 l23 -139 -39 -32 c-295 -241 -426 -360
-577 -523 -383 -414 -480 -763 -277 -994 131 -148 367 -217 744 -217 312 0
564 33 1020 132 176 38 191 40 215 26 14 -8 69 -41 121 -73 503 -307 1125
-431 1724 -344 947 137 1742 787 2070 1693 65 179 136 479 136 576 0 24 17 40
121 115 493 356 869 726 1031 1017 185 330 123 608 -166 748 -257 124 -742
132 -1334 22 l-152 -28 -75 91 c-102 126 -308 323 -440 422 -372 279 -812 454
-1274 508 -152 18 -454 18 -603 0z m714 -229 c717 -127 1312 -548 1678 -1187
73 -127 175 -363 166 -384 -3 -8 -31 -31 -63 -53 -32 -21 -122 -82 -201 -136
-215 -146 -504 -317 -862 -511 -131 -70 -681 -346 -810 -405 -63 -29 -153 -70
-199 -92 -96 -45 -291 -129 -306 -132 -5 -1 -24 -9 -41 -19 -73 -38 -713 -294
-753 -300 -9 -1 -22 -6 -28 -10 -22 -14 -291 -107 -483 -167 -203 -64 -321
-97 -477 -133 l-101 -24 -65 126 c-80 155 -135 304 -182 491 -47 188 -64 301
-71 500 -12 290 25 539 122 830 289 871 1046 1500 1949 1619 44 6 94 13 110
15 17 2 129 3 250 1 184 -2 244 -7 367 -29z m2823 -906 c201 -29 335 -93 382
-184 24 -45 21 -138 -6 -218 -26 -77 -97 -200 -179 -308 -76 -100 -339 -362
-485 -484 -695 -578 -1737 -1177 -2851 -1641 -950 -395 -1868 -655 -2531 -715
-138 -13 -387 -12 -484 0 -207 27 -346 92 -392 182 -18 35 -21 54 -17 120 4
70 10 90 56 182 109 220 331 464 688 759 45 37 86 67 91 67 6 0 15 -18 22 -39
l11 -40 -75 -75 c-84 -84 -150 -179 -166 -240 -27 -99 14 -186 108 -233 57
-28 61 -28 228 -28 188 1 270 13 555 85 1061 265 2850 1068 3868 1736 264 174
395 275 533 413 179 180 221 274 170 386 -45 99 -121 127 -339 124 l-153 -3
-24 37 c-14 20 -21 38 -16 41 19 12 365 64 531 79 83 8 411 6 475 -3z m-677
-365 c2 -2 -3 -16 -11 -32 -17 -30 -104 -120 -111 -112 -2 2 -17 36 -34 76
l-31 72 32 4 c31 4 148 -2 155 -8z m-208 -1550 c0 -12 -42 -186 -56 -230 -36
-114 -79 -225 -121 -310 -144 -295 -261 -466 -461 -669 -383 -390 -860 -629
-1402 -702 -159 -22 -453 -22 -606 -1 -161 23 -427 90 -560 142 -91 35 -314
143 -332 160 -2 1 30 12 70 24 361 107 834 273 1143 401 55 23 143 59 195 80
440 178 1199 554 1616 801 76 45 152 89 169 98 16 9 32 19 35 22 3 3 28 19 55
35 28 16 93 57 145 91 89 59 110 70 110 58z m-4685 -685 c19 -38 35 -74 35
-80 0 -13 -159 -13 -179 -1 -13 8 -13 12 -1 28 34 42 103 123 106 123 2 0 20
-31 39 -70z"/>
</g>
</svg>
